<svg width="1348" height="173" viewBox="0 0 1348 173" fill="none" xmlns="http://www.w3.org/2000/svg">
<g clip-path="url(#clip0_103_83)">
<path d="M18.9 68.8H42.4V78H7.5V8.49999H18.9V68.8ZM93.4336 49.1C93.4336 51.1667 93.3003 53.0333 93.0336 54.7H50.9336C51.2669 59.1 52.9003 62.6333 55.8336 65.3C58.7669 67.9667 62.3669 69.3 66.6336 69.3C72.7669 69.3 77.1003 66.7333 79.6336 61.6H91.9336C90.2669 66.6667 87.2336 70.8333 82.8336 74.1C78.5003 77.3 73.1003 78.9 66.6336 78.9C61.3669 78.9 56.6336 77.7333 52.4336 75.4C48.3003 73 45.0336 69.6667 42.6336 65.4C40.3003 61.0667 39.1336 56.0667 39.1336 50.4C39.1336 44.7333 40.2669 39.7667 42.5336 35.5C44.8669 31.1667 48.1003 27.8333 52.2336 25.5C56.4336 23.1667 61.2336 22 66.6336 22C71.8336 22 76.4669 23.1333 80.5336 25.4C84.6003 27.6667 87.7669 30.8667 90.0336 35C92.3003 39.0667 93.4336 43.7667 93.4336 49.1ZM81.5336 45.5C81.4669 41.3 79.9669 37.9333 77.0336 35.4C74.1003 32.8667 70.4669 31.6 66.1336 31.6C62.2003 31.6 58.8336 32.8667 56.0336 35.4C53.2336 37.8667 51.5669 41.2333 51.0336 45.5H81.5336ZM108.952 32.2V62.7C108.952 64.7667 109.419 66.2667 110.352 67.2C111.352 68.0667 113.019 68.5 115.352 68.5H122.352V78H113.352C108.219 78 104.286 76.8 101.552 74.4C98.819 72 97.4523 68.1 97.4523 62.7V32.2H90.9523V22.9H97.4523V9.2H108.952V22.9H122.352V32.2H108.952ZM125.659 8.49999H138.059L127.559 32.3H119.559L125.659 8.49999ZM159.078 78.9C154.745 78.9 150.845 78.1333 147.378 76.6C143.978 75 141.278 72.8667 139.278 70.2C137.278 67.4667 136.211 64.4333 136.078 61.1H147.878C148.078 63.4333 149.178 65.4 151.178 67C153.245 68.5333 155.811 69.3 158.878 69.3C162.078 69.3 164.545 68.7 166.278 67.5C168.078 66.2333 168.978 64.6333 168.978 62.7C168.978 60.6333 167.978 59.1 165.978 58.1C164.045 57.1 160.945 56 156.678 54.8C152.545 53.6667 149.178 52.5667 146.578 51.5C143.978 50.4333 141.711 48.8 139.778 46.6C137.911 44.4 136.978 41.5 136.978 37.9C136.978 34.9667 137.845 32.3 139.578 29.9C141.311 27.4333 143.778 25.5 146.978 24.1C150.245 22.7 153.978 22 158.178 22C164.445 22 169.478 23.6 173.278 26.8C177.145 29.9333 179.211 34.2333 179.478 39.7H168.078C167.878 37.2333 166.878 35.2667 165.078 33.8C163.278 32.3333 160.845 31.6 157.778 31.6C154.778 31.6 152.478 32.1667 150.878 33.3C149.278 34.4333 148.478 35.9333 148.478 37.8C148.478 39.2667 149.011 40.5 150.078 41.5C151.145 42.5 152.445 43.3 153.978 43.9C155.511 44.4333 157.778 45.1333 160.778 46C164.778 47.0667 168.045 48.1667 170.578 49.3C173.178 50.3667 175.411 51.9667 177.278 54.1C179.145 56.2333 180.111 59.0667 180.178 62.6C180.178 65.7333 179.311 68.5333 177.578 71C175.845 73.4667 173.378 75.4 170.178 76.8C167.045 78.2 163.345 78.9 159.078 78.9ZM3.7 135.2C3.7 129.667 4.83333 124.767 7.1 120.5C9.43333 116.233 12.5667 112.933 16.5 110.6C20.5 108.2 24.9333 107 29.8 107C33.4 107 36.9333 107.8 40.4 109.4C43.9333 110.933 46.7333 113 48.8 115.6V89H60.3V163H48.8V154.7C46.9333 157.367 44.3333 159.567 41 161.3C37.7333 163.033 33.9667 163.9 29.7 163.9C24.9 163.9 20.5 162.7 16.5 160.3C12.5667 157.833 9.43333 154.433 7.1 150.1C4.83333 145.7 3.7 140.733 3.7 135.2ZM48.8 135.4C48.8 131.6 48 128.3 46.4 125.5C44.8667 122.7 42.8333 120.567 40.3 119.1C37.7667 117.633 35.0333 116.9 32.1 116.9C29.1667 116.9 26.4333 117.633 23.9 119.1C21.3667 120.5 19.3 122.6 17.7 125.4C16.1667 128.133 15.4 131.4 15.4 135.2C15.4 139 16.1667 142.333 17.7 145.2C19.3 148.067 21.3667 150.267 23.9 151.8C26.5 153.267 29.2333 154 32.1 154C35.0333 154 37.7667 153.267 40.3 151.8C42.8333 150.333 44.8667 148.2 46.4 145.4C48 142.533 48.8 139.2 48.8 135.4ZM62.4734 135.2C62.4734 129.667 63.6068 124.767 65.8734 120.5C68.2068 116.233 71.3401 112.933 75.2734 110.6C79.2734 108.2 83.6734 107 88.4734 107C92.8068 107 96.5734 107.867 99.7734 109.6C103.04 111.267 105.64 113.367 107.573 115.9V107.9H119.073V163H107.573V154.8C105.64 157.4 103.007 159.567 99.6734 161.3C96.3401 163.033 92.5401 163.9 88.2734 163.9C83.5401 163.9 79.2068 162.7 75.2734 160.3C71.3401 157.833 68.2068 154.433 65.8734 150.1C63.6068 145.7 62.4734 140.733 62.4734 135.2ZM107.573 135.4C107.573 131.6 106.773 128.3 105.173 125.5C103.64 122.7 101.607 120.567 99.0734 119.1C96.5401 117.633 93.8068 116.9 90.8734 116.9C87.9401 116.9 85.2068 117.633 82.6734 119.1C80.1401 120.5 78.0734 122.6 76.4734 125.4C74.9401 128.133 74.1734 131.4 74.1734 135.2C74.1734 139 74.9401 142.333 76.4734 145.2C78.0734 148.067 80.1401 150.267 82.6734 151.8C85.2734 153.267 88.0068 154 90.8734 154C93.8068 154 96.5401 153.267 99.0734 151.8C101.607 150.333 103.64 148.2 105.173 145.4C106.773 142.533 107.573 139.2 107.573 135.4ZM152.847 107C157.18 107 161.047 107.9 164.447 109.7C167.914 111.5 170.614 114.167 172.547 117.7C174.48 121.233 175.447 125.5 175.447 130.5V163H164.147V132.2C164.147 127.267 162.914 123.5 160.447 120.9C157.98 118.233 154.614 116.9 150.347 116.9C146.08 116.9 142.68 118.233 140.147 120.9C137.68 123.5 136.447 127.267 136.447 132.2V163H125.047V107.9H136.447V114.2C138.314 111.933 140.68 110.167 143.547 108.9C146.48 107.633 149.58 107 152.847 107ZM177.188 135.4C177.188 129.733 178.322 124.767 180.588 120.5C182.922 116.167 186.122 112.833 190.188 110.5C194.255 108.167 198.922 107 204.188 107C210.855 107 216.355 108.6 220.688 111.8C225.088 114.933 228.055 119.433 229.588 125.3H217.288C216.288 122.567 214.688 120.433 212.488 118.9C210.288 117.367 207.522 116.6 204.188 116.6C199.522 116.6 195.788 118.267 192.988 121.6C190.255 124.867 188.888 129.467 188.888 135.4C188.888 141.333 190.255 145.967 192.988 149.3C195.788 152.633 199.522 154.3 204.188 154.3C210.788 154.3 215.155 151.4 217.288 145.6H229.588C227.988 151.2 224.988 155.667 220.588 159C216.188 162.267 210.722 163.9 204.188 163.9C198.922 163.9 194.255 162.733 190.188 160.4C186.122 158 182.922 154.667 180.588 150.4C178.322 146.067 177.188 141.067 177.188 135.4ZM282.449 134.1C282.449 136.167 282.316 138.033 282.049 139.7H239.949C240.283 144.1 241.916 147.633 244.849 150.3C247.783 152.967 251.383 154.3 255.649 154.3C261.783 154.3 266.116 151.733 268.649 146.6H280.949C279.283 151.667 276.249 155.833 271.849 159.1C267.516 162.3 262.116 163.9 255.649 163.9C250.383 163.9 245.649 162.733 241.449 160.4C237.316 158 234.049 154.667 231.649 150.4C229.316 146.067 228.149 141.067 228.149 135.4C228.149 129.733 229.283 124.767 231.549 120.5C233.883 116.167 237.116 112.833 241.249 110.5C245.449 108.167 250.249 107 255.649 107C260.849 107 265.483 108.133 269.549 110.4C273.616 112.667 276.783 115.867 279.049 120C281.316 124.067 282.449 128.767 282.449 134.1ZM270.549 130.5C270.483 126.3 268.983 122.933 266.049 120.4C263.116 117.867 259.483 116.6 255.149 116.6C251.216 116.6 247.849 117.867 245.049 120.4C242.249 122.867 240.583 126.233 240.049 130.5H270.549Z" fill="white"/>
</g>
<defs>
<clipPath id="clip0_103_83">
<rect width="1348" height="173" fill="white"/>
</clipPath>
</defs>
</svg>
