<svg width="135" height="32" viewBox="0 0 135 32" fill="none" xmlns="http://www.w3.org/2000/svg">
<g clip-path="url(#clip0_104_7)">
<path fill-rule="evenodd" clip-rule="evenodd" d="M26.7062 28.0001C29.9566 25.06 32 20.801 32 16.0629C32 7.1916 24.8365 0 16 0C7.16345 0 0 7.1916 0 16.0629C0 20.6054 1.87821 24.7076 4.89752 27.6293L10.7978 6.52555L13.7527 12.9014H15.75H17.7474L20.7022 6.52555L26.7062 28.0001Z" fill="white"/>
<path d="M13.0667 19.7775C13.6558 19.7775 14.1333 19.298 14.1333 18.7066C14.1333 18.1152 13.6558 17.6357 13.0667 17.6357C12.4776 17.6357 12 18.1152 12 18.7066C12 19.298 12.4776 19.7775 13.0667 19.7775Z" fill="white"/>
<path d="M18.5667 19.7775C19.1558 19.7775 19.6333 19.298 19.6333 18.7066C19.6333 18.1152 19.1558 17.6357 18.5667 17.6357C17.9776 17.6357 17.5 18.1152 17.5 18.7066C17.5 19.298 17.9776 19.7775 18.5667 19.7775Z" fill="white"/>
<path d="M56.544 9.428V20.5H55.088V12.244L51.408 20.5H50.384L46.688 12.228V20.5H45.232V9.428H46.8L50.896 18.58L54.992 9.428H56.544ZM58.8053 10.308C58.5279 10.308 58.2933 10.212 58.1013 10.02C57.9093 9.828 57.8133 9.59333 57.8133 9.316C57.8133 9.03867 57.9093 8.804 58.1013 8.612C58.2933 8.42 58.5279 8.324 58.8053 8.324C59.0719 8.324 59.2959 8.42 59.4773 8.612C59.6693 8.804 59.7653 9.03867 59.7653 9.316C59.7653 9.59333 59.6693 9.828 59.4773 10.02C59.2959 10.212 59.0719 10.308 58.8053 10.308ZM59.5093 11.732V20.5H58.0533V11.732H59.5093ZM65.3028 11.572C66.3694 11.572 67.2334 11.8973 67.8948 12.548C68.5561 13.188 68.8868 14.116 68.8868 15.332V20.5H67.4468V15.54C67.4468 14.6653 67.2281 13.9987 66.7908 13.54C66.3534 13.0707 65.7561 12.836 64.9988 12.836C64.2308 12.836 63.6174 13.076 63.1588 13.556C62.7108 14.036 62.4868 14.7347 62.4868 15.652V20.5H61.0308V11.732H62.4868V12.98C62.7748 12.532 63.1641 12.1853 63.6548 11.94C64.1561 11.6947 64.7054 11.572 65.3028 11.572ZM74.6571 11.572C75.3185 11.572 75.9158 11.716 76.4491 12.004C76.9825 12.2813 77.3985 12.7027 77.6971 13.268C78.0065 13.8333 78.1611 14.5213 78.1611 15.332V20.5H76.7211V15.54C76.7211 14.6653 76.5025 13.9987 76.0651 13.54C75.6278 13.0707 75.0305 12.836 74.2731 12.836C73.5051 12.836 72.8918 13.076 72.4331 13.556C71.9851 14.036 71.7611 14.7347 71.7611 15.652V20.5H70.3051V8.66H71.7611V12.98C72.0491 12.532 72.4438 12.1853 72.9451 11.94C73.4571 11.6947 74.0278 11.572 74.6571 11.572ZM90.3411 12.612C90.3411 13.54 90.0211 14.3133 89.3811 14.932C88.7518 15.54 87.7865 15.844 86.4851 15.844H84.3411V20.5H82.8851V9.348H86.4851C87.7438 9.348 88.6985 9.652 89.3491 10.26C90.0105 10.868 90.3411 11.652 90.3411 12.612ZM86.4851 14.644C87.2958 14.644 87.8931 14.468 88.2771 14.116C88.6611 13.764 88.8531 13.2627 88.8531 12.612C88.8531 11.236 88.0638 10.548 86.4851 10.548H84.3411V14.644H86.4851ZM95.5428 11.572C96.2041 11.572 96.8014 11.716 97.3348 12.004C97.8681 12.2813 98.2841 12.7027 98.5828 13.268C98.8921 13.8333 99.0468 14.5213 99.0468 15.332V20.5H97.6068V15.54C97.6068 14.6653 97.3881 13.9987 96.9508 13.54C96.5134 13.0707 95.9161 12.836 95.1588 12.836C94.3908 12.836 93.7774 13.076 93.3188 13.556C92.8708 14.036 92.6468 14.7347 92.6468 15.652V20.5H91.1908V8.66H92.6468V12.98C92.9348 12.532 93.3294 12.1853 93.8308 11.94C94.3428 11.6947 94.9134 11.572 95.5428 11.572ZM99.9211 16.084C99.9211 15.188 100.102 14.404 100.465 13.732C100.828 13.0493 101.324 12.5213 101.953 12.148C102.593 11.7747 103.302 11.588 104.081 11.588C104.849 11.588 105.516 11.7533 106.081 12.084C106.646 12.4147 107.068 12.8307 107.345 13.332V11.732H108.817V20.5H107.345V18.868C107.057 19.38 106.625 19.8067 106.049 20.148C105.484 20.4787 104.822 20.644 104.065 20.644C103.286 20.644 102.582 20.452 101.953 20.068C101.324 19.684 100.828 19.1453 100.465 18.452C100.102 17.7587 99.9211 16.9693 99.9211 16.084ZM107.345 16.1C107.345 15.4387 107.212 14.8627 106.945 14.372C106.678 13.8813 106.316 13.508 105.857 13.252C105.409 12.9853 104.913 12.852 104.369 12.852C103.825 12.852 103.329 12.98 102.881 13.236C102.433 13.492 102.076 13.8653 101.809 14.356C101.542 14.8467 101.409 15.4227 101.409 16.084C101.409 16.756 101.542 17.3427 101.809 17.844C102.076 18.3347 102.433 18.7133 102.881 18.98C103.329 19.236 103.825 19.364 104.369 19.364C104.913 19.364 105.409 19.236 105.857 18.98C106.316 18.7133 106.678 18.3347 106.945 17.844C107.212 17.3427 107.345 16.7613 107.345 16.1ZM111.774 13.156C112.03 12.6547 112.392 12.2653 112.862 11.988C113.342 11.7107 113.923 11.572 114.606 11.572V13.076H114.222C112.59 13.076 111.774 13.9613 111.774 15.732V20.5H110.318V11.732H111.774V13.156ZM125.87 11.572C126.553 11.572 127.161 11.716 127.694 12.004C128.228 12.2813 128.649 12.7027 128.958 13.268C129.268 13.8333 129.422 14.5213 129.422 15.332V20.5H127.982V15.54C127.982 14.6653 127.764 13.9987 127.326 13.54C126.9 13.0707 126.318 12.836 125.582 12.836C124.825 12.836 124.222 13.0813 123.774 13.572C123.326 14.052 123.102 14.7507 123.102 15.668V20.5H121.662V15.54C121.662 14.6653 121.444 13.9987 121.006 13.54C120.58 13.0707 119.998 12.836 119.262 12.836C118.505 12.836 117.902 13.0813 117.454 13.572C117.006 14.052 116.782 14.7507 116.782 15.668V20.5H115.326V11.732H116.782V12.996C117.07 12.5373 117.454 12.1853 117.934 11.94C118.425 11.6947 118.964 11.572 119.55 11.572C120.286 11.572 120.937 11.7373 121.502 12.068C122.068 12.3987 122.489 12.884 122.766 13.524C123.012 12.9053 123.417 12.4253 123.982 12.084C124.548 11.7427 125.177 11.572 125.87 11.572Z" fill="white"/>
</g>
<defs>
<clipPath id="clip0_104_7">
<rect width="135" height="32" fill="white"/>
</clipPath>
</defs>
</svg>
