<svg width="147" height="144" viewBox="0 0 147 144" fill="none" xmlns="http://www.w3.org/2000/svg">
<path d="M13.3047 51.875C13.3047 37.5417 15.638 26.375 20.3047 18.375C24.9714 10.2917 33.138 6.25 44.8047 6.25C56.388 6.25 64.513 10.2917 69.1797 18.375C73.8464 26.375 76.1797 37.5417 76.1797 51.875C76.1797 66.4583 73.8464 77.7917 69.1797 85.875C64.513 93.9583 56.388 98 44.8047 98C33.138 98 24.9714 93.9583 20.3047 85.875C15.638 77.7917 13.3047 66.4583 13.3047 51.875ZM64.9297 51.875C64.9297 44.625 64.4297 38.5 63.4297 33.5C62.513 28.4167 60.5547 24.3333 57.5547 21.25C54.638 18.1667 50.388 16.625 44.8047 16.625C39.138 16.625 34.8047 18.1667 31.8047 21.25C28.888 24.3333 26.9297 28.4167 25.9297 33.5C25.013 38.5 24.5547 44.625 24.5547 51.875C24.5547 59.375 25.013 65.6667 25.9297 70.75C26.9297 75.8333 28.888 79.9167 31.8047 83C34.8047 86.0833 39.138 87.625 44.8047 87.625C50.388 87.625 54.638 86.0833 57.5547 83C60.5547 79.9167 62.513 75.8333 63.4297 70.75C64.4297 65.6667 64.9297 59.375 64.9297 51.875ZM82.9209 88.875C93.5042 80.375 101.796 73.4167 107.796 68C113.796 62.5 118.838 56.7917 122.921 50.875C127.088 44.875 129.171 39 129.171 33.25C129.171 27.8333 127.838 23.5833 125.171 20.5C122.588 17.3333 118.379 15.75 112.546 15.75C106.879 15.75 102.463 17.5417 99.2959 21.125C96.2126 24.625 94.5459 29.3333 94.2959 35.25H83.2959C83.6292 25.9167 86.4626 18.7083 91.7959 13.625C97.1292 8.54166 104.004 5.99999 112.421 5.99999C121.004 5.99999 127.796 8.37499 132.796 13.125C137.879 17.875 140.421 24.4167 140.421 32.75C140.421 39.6667 138.338 46.4167 134.171 53C130.088 59.5 125.421 65.25 120.171 70.25C114.921 75.1667 108.213 80.9167 100.046 87.5H143.046V97H82.9209V88.875Z" fill="white"/>
<path d="M54.6634 117.928V129H53.2074V120.744L49.5274 129H48.5034L44.8074 120.728V129H43.3514V117.928H44.9194L49.0154 127.08L53.1114 117.928H54.6634ZM56.9246 118.808C56.6473 118.808 56.4126 118.712 56.2206 118.52C56.0286 118.328 55.9326 118.093 55.9326 117.816C55.9326 117.539 56.0286 117.304 56.2206 117.112C56.4126 116.92 56.6473 116.824 56.9246 116.824C57.1913 116.824 57.4153 116.92 57.5966 117.112C57.7886 117.304 57.8846 117.539 57.8846 117.816C57.8846 118.093 57.7886 118.328 57.5966 118.52C57.4153 118.712 57.1913 118.808 56.9246 118.808ZM57.6286 120.232V129H56.1726V120.232H57.6286ZM63.4221 120.072C64.4888 120.072 65.3528 120.397 66.0141 121.048C66.6755 121.688 67.0061 122.616 67.0061 123.832V129H65.5661V124.04C65.5661 123.165 65.3475 122.499 64.9101 122.04C64.4728 121.571 63.8755 121.336 63.1181 121.336C62.3501 121.336 61.7368 121.576 61.2781 122.056C60.8301 122.536 60.6061 123.235 60.6061 124.152V129H59.1501V120.232H60.6061V121.48C60.8941 121.032 61.2835 120.685 61.7741 120.44C62.2755 120.195 62.8248 120.072 63.4221 120.072ZM76.2005 120.232V129H74.7445V127.704C74.4672 128.152 74.0778 128.504 73.5765 128.76C73.0858 129.005 72.5418 129.128 71.9445 129.128C71.2618 129.128 70.6485 128.989 70.1045 128.712C69.5605 128.424 69.1285 127.997 68.8085 127.432C68.4992 126.867 68.3445 126.179 68.3445 125.368V120.232H69.7845V125.176C69.7845 126.04 70.0032 126.707 70.4405 127.176C70.8778 127.635 71.4752 127.864 72.2325 127.864C73.0112 127.864 73.6245 127.624 74.0725 127.144C74.5205 126.664 74.7445 125.965 74.7445 125.048V120.232H76.2005ZM79.4749 121.432V126.6C79.4749 127.027 79.5655 127.331 79.7469 127.512C79.9282 127.683 80.2429 127.768 80.6909 127.768H81.7629V129H80.4509C79.6402 129 79.0322 128.813 78.6269 128.44C78.2215 128.067 78.0189 127.453 78.0189 126.6V121.432H76.8829V120.232H78.0189V118.024H79.4749V120.232H81.7629V121.432H79.4749ZM90.567 124.28C90.567 124.557 90.551 124.851 90.519 125.16H83.511C83.5643 126.024 83.8577 126.701 84.391 127.192C84.935 127.672 85.591 127.912 86.359 127.912C86.9883 127.912 87.511 127.768 87.927 127.48C88.3537 127.181 88.6523 126.787 88.823 126.296H90.391C90.1563 127.139 89.687 127.827 88.983 128.36C88.279 128.883 87.4043 129.144 86.359 129.144C85.527 129.144 84.7803 128.957 84.119 128.584C83.4683 128.211 82.9563 127.683 82.583 127C82.2097 126.307 82.023 125.507 82.023 124.6C82.023 123.693 82.2043 122.899 82.567 122.216C82.9297 121.533 83.4363 121.011 84.087 120.648C84.7483 120.275 85.5057 120.088 86.359 120.088C87.191 120.088 87.927 120.269 88.567 120.632C89.207 120.995 89.6977 121.496 90.039 122.136C90.391 122.765 90.567 123.48 90.567 124.28ZM89.063 123.976C89.063 123.421 88.9403 122.947 88.695 122.552C88.4497 122.147 88.1137 121.843 87.687 121.64C87.271 121.427 86.807 121.32 86.295 121.32C85.559 121.32 84.9297 121.555 84.407 122.024C83.895 122.493 83.6017 123.144 83.527 123.976H89.063ZM94.6329 129.144C93.9609 129.144 93.3582 129.032 92.8249 128.808C92.2915 128.573 91.8702 128.253 91.5609 127.848C91.2515 127.432 91.0809 126.957 91.0489 126.424H92.5529C92.5955 126.861 92.7982 127.219 93.1609 127.496C93.5342 127.773 94.0195 127.912 94.6169 127.912C95.1715 127.912 95.6089 127.789 95.9289 127.544C96.2489 127.299 96.4089 126.989 96.4089 126.616C96.4089 126.232 96.2382 125.949 95.8969 125.768C95.5555 125.576 95.0275 125.389 94.3129 125.208C93.6622 125.037 93.1289 124.867 92.7129 124.696C92.3075 124.515 91.9555 124.253 91.6569 123.912C91.3689 123.56 91.2249 123.101 91.2249 122.536C91.2249 122.088 91.3582 121.677 91.6249 121.304C91.8915 120.931 92.2702 120.637 92.7609 120.424C93.2515 120.2 93.8115 120.088 94.4409 120.088C95.4115 120.088 96.1955 120.333 96.7929 120.824C97.3902 121.315 97.7102 121.987 97.7529 122.84H96.2969C96.2649 122.381 96.0782 122.013 95.7369 121.736C95.4062 121.459 94.9582 121.32 94.3929 121.32C93.8702 121.32 93.4542 121.432 93.1449 121.656C92.8355 121.88 92.6809 122.173 92.6809 122.536C92.6809 122.824 92.7715 123.064 92.9529 123.256C93.1449 123.437 93.3795 123.587 93.6569 123.704C93.9449 123.811 94.3395 123.933 94.8409 124.072C95.4702 124.243 95.9822 124.413 96.3769 124.584C96.7715 124.744 97.1075 124.989 97.3849 125.32C97.6729 125.651 97.8222 126.083 97.8329 126.616C97.8329 127.096 97.6995 127.528 97.4329 127.912C97.1662 128.296 96.7875 128.6 96.2969 128.824C95.8169 129.037 95.2622 129.144 94.6329 129.144ZM113.914 120.232L111.178 129H109.674L107.562 122.04L105.45 129H103.946L101.194 120.232H102.682L104.698 127.592L106.874 120.232H108.362L110.49 127.608L112.474 120.232H113.914ZM113.855 124.584C113.855 123.688 114.036 122.904 114.399 122.232C114.762 121.549 115.258 121.021 115.887 120.648C116.527 120.275 117.236 120.088 118.015 120.088C118.783 120.088 119.45 120.253 120.015 120.584C120.58 120.915 121.002 121.331 121.279 121.832V120.232H122.751V129H121.279V127.368C120.991 127.88 120.559 128.307 119.983 128.648C119.418 128.979 118.756 129.144 117.999 129.144C117.22 129.144 116.516 128.952 115.887 128.568C115.258 128.184 114.762 127.645 114.399 126.952C114.036 126.259 113.855 125.469 113.855 124.584ZM121.279 124.6C121.279 123.939 121.146 123.363 120.879 122.872C120.612 122.381 120.25 122.008 119.791 121.752C119.343 121.485 118.847 121.352 118.303 121.352C117.759 121.352 117.263 121.48 116.815 121.736C116.367 121.992 116.01 122.365 115.743 122.856C115.476 123.347 115.343 123.923 115.343 124.584C115.343 125.256 115.476 125.843 115.743 126.344C116.01 126.835 116.367 127.213 116.815 127.48C117.263 127.736 117.759 127.864 118.303 127.864C118.847 127.864 119.343 127.736 119.791 127.48C120.25 127.213 120.612 126.835 120.879 126.344C121.146 125.843 121.279 125.261 121.279 124.6ZM126.027 121.432V126.6C126.027 127.027 126.118 127.331 126.299 127.512C126.481 127.683 126.795 127.768 127.243 127.768H128.315V129H127.003C126.193 129 125.585 128.813 125.179 128.44C124.774 128.067 124.571 127.453 124.571 126.6V121.432H123.435V120.232H124.571V118.024H126.027V120.232H128.315V121.432H126.027ZM128.575 124.6C128.575 123.693 128.757 122.904 129.119 122.232C129.482 121.549 129.983 121.021 130.623 120.648C131.274 120.275 132.015 120.088 132.847 120.088C133.925 120.088 134.81 120.349 135.503 120.872C136.207 121.395 136.671 122.12 136.895 123.048H135.327C135.178 122.515 134.885 122.093 134.447 121.784C134.021 121.475 133.487 121.32 132.847 121.32C132.015 121.32 131.343 121.608 130.831 122.184C130.319 122.749 130.063 123.555 130.063 124.6C130.063 125.656 130.319 126.472 130.831 127.048C131.343 127.624 132.015 127.912 132.847 127.912C133.487 127.912 134.021 127.763 134.447 127.464C134.874 127.165 135.167 126.739 135.327 126.184H136.895C136.661 127.08 136.191 127.8 135.487 128.344C134.783 128.877 133.903 129.144 132.847 129.144C132.015 129.144 131.274 128.957 130.623 128.584C129.983 128.211 129.482 127.683 129.119 127C128.757 126.317 128.575 125.517 128.575 124.6ZM142.23 120.072C142.892 120.072 143.489 120.216 144.022 120.504C144.556 120.781 144.972 121.203 145.27 121.768C145.58 122.333 145.734 123.021 145.734 123.832V129H144.294V124.04C144.294 123.165 144.076 122.499 143.638 122.04C143.201 121.571 142.604 121.336 141.846 121.336C141.078 121.336 140.465 121.576 140.006 122.056C139.558 122.536 139.334 123.235 139.334 124.152V129H137.878V117.16H139.334V121.48C139.622 121.032 140.017 120.685 140.518 120.44C141.03 120.195 141.601 120.072 142.23 120.072Z" fill="white"/>
</svg>
